<svg xmlns="http://www.w3.org/2000/svg" width="279" height="80" viewBox="0 0 209 60" preserveAspectRatio="xMidYMid meet" version="1.0"><defs><clipPath id="icoA"><path d="M 5 3.246094 L 55.925781 3.246094 L 55.925781 56.464844 L 5 56.464844 Z M 5 3.246094 " clip-rule="nonzero"/></clipPath><clipPath id="icoB"><path d="M 34.234375 28.171875 L 11.484375 28.171875 C 10.601562 28.171875 9.960938 27.328125 10.199219 26.480469 L 16.445312 4.21875 C 16.609375 3.644531 17.132812 3.246094 17.730469 3.246094 L 40.480469 3.246094 C 41.363281 3.246094 42.003906 4.089844 41.761719 4.9375 L 35.515625 27.199219 C 35.355469 27.773438 34.832031 28.171875 34.234375 28.171875 Z M 19.457031 44.972656 L 22.671875 33.511719 C 22.910156 32.664062 22.273438 31.820312 21.390625 31.820312 L 9.695312 31.820312 C 9.097656 31.820312 8.574219 32.21875 8.414062 32.792969 L 5.195312 44.253906 C 4.957031 45.105469 5.597656 45.945312 6.480469 45.945312 L 18.175781 45.945312 C 18.773438 45.945312 19.296875 45.550781 19.457031 44.972656 Z M 25.375 32.792969 L 19.128906 55.054688 C 18.890625 55.902344 19.53125 56.746094 20.410156 56.746094 L 43.164062 56.746094 C 43.761719 56.746094 44.285156 56.347656 44.445312 55.773438 L 50.691406 33.511719 C 50.929688 32.664062 50.292969 31.820312 49.410156 31.820312 L 26.65625 31.820312 C 26.0625 31.820312 25.535156 32.21875 25.375 32.792969 Z M 41.4375 15.019531 L 38.21875 26.480469 C 37.980469 27.328125 38.621094 28.171875 39.503906 28.171875 L 51.199219 28.171875 C 51.792969 28.171875 52.320312 27.773438 52.480469 27.199219 L 55.695312 15.738281 C 55.933594 14.886719 55.296875 14.046875 54.414062 14.046875 L 42.71875 14.046875 C 42.121094 14.046875 41.597656 14.441406 41.4375 15.019531 Z M 41.4375 15.019531 " clip-rule="nonzero"/></clipPath></defs><g clip-path="url(#icoA)"><g clip-path="url(#icoB)"><path fill="#000000" d="M 4.957031 3.246094 L 4.957031 56.464844 L 55.925781 56.464844 L 55.925781 3.246094 Z M 4.957031 3.246094 " fill-opacity="1" fill-rule="nonzero"/></g></g><g fill="#000000" fill-opacity="1"><path d="M77.28838682432432 48.85165175225225 77.87925112612612 47.40994285585585 69.93803490990992 27.41509488288288Q69.20536317567567 25.689771121621618 69.20536317567567 24.909830243243242Q69.20536317567567 24.082620220720717 69.63078547297297 23.373583058558555Q70.05620777027028 22.664545896396394 70.80069679054054 22.239123599099095Q71.5451858108108 21.8137013018018 72.34876126126126 21.8137013018018Q73.74320101351351 21.8137013018018 74.45223817567567 22.6999977545045Q75.16127533783784 23.586294207207203 75.7048704954955 25.24071425225225L81.16445664414414 41.123146684684684L86.34042792792793 26.351539139639637Q86.9549268018018 24.555311662162158 87.45125281531531 23.539025063063058Q87.94757882882882 22.52273846396396 88.50299127252252 22.16821988288288Q89.05840371621622 21.8137013018018 90.07469031531531 21.8137013018018Q90.80736204954955 21.8137013018018 91.4809473536036 22.203671740990988Q92.15453265765765 22.593642180180176 92.52086852477477 23.255410198198195Q92.88720439189188 23.917178216216215 92.88720439189188 24.64984995045045Q92.79266610360361 25.098906819819817 92.57995495495496 25.92611684234234Q92.3672438063063 26.753326864864864 92.05999436936938 27.604171459459458L83.64608671171172 49.63159263063063Q82.55889639639639 52.538644995495495 81.51897522522523 54.19306504054054Q80.47905405405406 55.84748508558558 78.76554757882883 56.733781538288284Q77.0520411036036 57.62007799099099 74.14498873873873 57.62007799099099Q71.30884009009009 57.62007799099099 69.89076576576576 57.00557911711712Q68.47269144144144 56.391080243243245 68.47269144144144 54.76029477027027Q68.47269144144144 53.64946988288288 69.1462767454955 53.04678829504505Q69.81986204954956 52.444106707207204 71.14339808558559 52.444106707207204Q71.66335867117117 52.444106707207204 72.15968468468469 52.58591413963964Q72.77418355855856 52.72772157207207 73.22324042792793 52.72772157207207Q74.33406531531531 52.72772157207207 74.97219876126127 52.39683756306306Q75.61033220720721 52.065953554054055 76.11847550675677 51.25056081756757Q76.62661880630631 50.43516808108108 77.28838682432432 48.85165175225225Z M104.01908783783784 25.47705997297297V44.124737337837836Q104.01908783783784 46.062772247747745 103.09733952702703 47.05542427477477Q102.17559121621622 48.0480763018018 100.7575168918919 48.0480763018018Q99.33944256756757 48.0480763018018 98.45314611486486 47.031789702702696Q97.56684966216216 46.0155031036036 97.56684966216216 44.124737337837836V25.666136549549545Q97.56684966216216 23.75173621171171 98.45314611486486 22.782718756756754Q99.33944256756757 21.8137013018018 100.7575168918919 21.8137013018018Q102.17559121621622 21.8137013018018 103.09733952702703 22.782718756756754Q104.01908783783784 23.75173621171171 104.01908783783784 25.47705997297297ZM100.8284206081081 18.812110648648645Q99.48125 18.812110648648645 98.52404983108107 17.984900626126123Q97.56684966216216 17.1576906036036 97.56684966216216 15.645077990990988Q97.56684966216216 14.274272810810807 98.54768440315314 13.387976358108105Q99.52851914414414 12.501679905405403 100.8284206081081 12.501679905405403Q102.08105292792793 12.501679905405403 103.0500703828829 13.305255355855852Q104.01908783783784 14.108830806306301 104.01908783783784 15.645077990990988Q104.01908783783784 17.13405603153153 103.07370495495496 17.973083340090085Q102.12832207207207 18.812110648648645 100.8284206081081 18.812110648648645Z M116.63994932432432 25.429790828828825V26.209731707207204Q118.45981137387388 23.964447360360356 120.42148085585586 22.91270890315315Q122.38315033783783 21.86097044594594 124.86478040540541 21.86097044594594Q127.84273648648649 21.86097044594594 130.34800112612612 23.397217630630628Q132.85326576576577 24.93346481531531 134.3067919481982 27.88778632432432Q135.76031813063062 30.84210783333333 135.76031813063062 34.883619657657654Q135.76031813063062 37.861575738738736 134.92129082207208 40.355023092342336Q134.0822635135135 42.84847044594594 132.61692004504505 44.538342349099096Q131.1515765765766 46.22821425225225 129.15445523648648 47.13814527702702Q127.1573338963964 48.0480763018018 124.86478040540541 48.0480763018018Q122.09953547297297 48.0480763018018 120.22058699324324 46.93725141441441Q118.34163851351352 45.826426527027024 116.63994932432432 43.675680468468464V53.36585501801802Q116.63994932432432 57.62007799099099 113.54382038288288 57.62007799099099Q111.72395833333333 57.62007799099099 111.13309403153153 56.52107038963964Q110.54222972972973 55.42206278828829 110.54222972972973 53.31858587387387V25.47705997297297Q110.54222972972973 23.63356335135135 111.34580518018018 22.723632326576574Q112.14938063063063 21.8137013018018 113.54382038288288 21.8137013018018Q114.91462556306307 21.8137013018018 115.7772874436937 22.747266898648647Q116.63994932432432 23.680832495495494 116.63994932432432 25.429790828828825ZM129.2844453828829 34.81271594144144Q129.2844453828829 32.26018215765765 128.5045045045045 30.42850282207207Q127.72456362612613 28.596823486486485 126.34194115990991 27.615988745495493Q124.95931869369369 26.6351540045045 123.28126407657658 26.6351540045045Q120.61055743243243 26.6351540045045 118.77887809684685 28.738630918918915Q116.94719876126126 30.84210783333333 116.94719876126126 34.9308888018018Q116.94719876126126 38.78332404954955 118.76706081081082 40.92225282207207Q120.58692286036036 43.06118159459459 123.28126407657658 43.06118159459459Q124.88841497747748 43.06118159459459 126.25922015765767 42.127615997747746Q127.63002533783784 41.1940504009009 128.45723536036036 39.326919207207204Q129.2844453828829 37.45978801351351 129.2844453828829 34.81271594144144Z M146.8922015765766 48.85165175225225 147.4830658783784 47.40994285585585 139.54184966216218 27.41509488288288Q138.80917792792795 25.689771121621618 138.80917792792795 24.909830243243242Q138.80917792792795 24.082620220720717 139.23460022522525 23.373583058558555Q139.66002252252255 22.664545896396394 140.40451154279282 22.239123599099095Q141.14900056306308 21.8137013018018 141.95257601351355 21.8137013018018Q143.3470157657658 21.8137013018018 144.05605292792796 22.6999977545045Q144.76509009009013 23.586294207207203 145.30868524774777 25.24071425225225L150.76827139639641 41.123146684684684L155.9442426801802 26.351539139639637Q156.55874155405408 24.555311662162158 157.0550675675676 23.539025063063058Q157.5513935810811 22.52273846396396 158.1068060247748 22.16821988288288Q158.6622184684685 21.8137013018018 159.67850506756758 21.8137013018018Q160.41117680180182 21.8137013018018 161.08476210585587 22.203671740990988Q161.75834740990993 22.593642180180176 162.12468327702703 23.255410198198195Q162.49101914414416 23.917178216216215 162.49101914414416 24.64984995045045Q162.39648085585588 25.098906819819817 162.18376970720723 25.92611684234234Q161.97105855855858 26.753326864864864 161.66380912162165 27.604171459459458L153.249901463964 49.63159263063063Q152.16271114864867 52.538644995495495 151.1227899774775 54.19306504054054Q150.08286880630632 55.84748508558558 148.3693623310811 56.733781538288284Q146.6558558558559 57.62007799099099 143.748803490991 57.62007799099099Q140.91265484234236 57.62007799099099 139.49458051801804 57.00557911711712Q138.07650619369372 56.391080243243245 138.07650619369372 54.76029477027027Q138.07650619369372 53.64946988288288 138.75009149774777 53.04678829504505Q139.42367680180183 52.444106707207204 140.74721283783785 52.444106707207204Q141.26717342342346 52.444106707207204 141.76349943693697 52.58591413963964Q142.37799831081082 52.72772157207207 142.8270551801802 52.72772157207207Q143.9378800675676 52.72772157207207 144.57601351351354 52.39683756306306Q145.21414695945947 52.065953554054055 145.72229025900901 51.25056081756757Q146.2304335585586 50.43516808108108 146.8922015765766 48.85165175225225Z M173.62290259009012 25.47705997297297V44.124737337837836Q173.62290259009012 46.062772247747745 172.7011542792793 47.05542427477477Q171.7794059684685 48.0480763018018 170.36133164414417 48.0480763018018Q168.94325731981985 48.0480763018018 168.05696086711714 47.031789702702696Q167.17066441441443 46.0155031036036 167.17066441441443 44.124737337837836V25.666136549549545Q167.17066441441443 23.75173621171171 168.05696086711714 22.782718756756754Q168.94325731981985 21.8137013018018 170.36133164414417 21.8137013018018Q171.7794059684685 21.8137013018018 172.7011542792793 22.782718756756754Q173.62290259009012 23.75173621171171 173.62290259009012 25.47705997297297ZM170.43223536036038 18.812110648648645Q169.08506475225226 18.812110648648645 168.12786458333335 17.984900626126123Q167.17066441441443 17.1576906036036 167.17066441441443 15.645077990990988Q167.17066441441443 14.274272810810807 168.15149915540542 13.387976358108105Q169.13233389639643 12.501679905405403 170.43223536036038 12.501679905405403Q171.68486768018022 12.501679905405403 172.65388513513517 13.305255355855852Q173.62290259009012 14.108830806306301 173.62290259009012 15.645077990990988Q173.62290259009012 17.13405603153153 172.67751970720724 17.973083340090085Q171.73213682432436 18.812110648648645 170.43223536036038 18.812110648648645Z M186.2437640765766 25.429790828828825V26.209731707207204Q188.06362612612614 23.964447360360356 190.02529560810814 22.91270890315315Q191.9869650900901 21.86097044594594 194.4685951576577 21.86097044594594Q197.44655123873878 21.86097044594594 199.9518158783784 23.397217630630628Q202.45708051801805 24.93346481531531 203.91060670045047 27.88778632432432Q205.3641328828829 30.84210783333333 205.3641328828829 34.883619657657654Q205.3641328828829 37.861575738738736 204.52510557432436 40.355023092342336Q203.6860782657658 42.84847044594594 202.22073479729733 44.538342349099096Q200.75539132882886 46.22821425225225 198.7582699887388 47.13814527702702Q196.76114864864869 48.0480763018018 194.4685951576577 48.0480763018018Q191.70335022522525 48.0480763018018 189.82440174549552 46.93725141441441Q187.9454532657658 45.826426527027024 186.2437640765766 43.675680468468464V53.36585501801802Q186.2437640765766 57.62007799099099 183.14763513513515 57.62007799099099Q181.32777308558562 57.62007799099099 180.7369087837838 56.52107038963964Q180.14604448198202 55.42206278828829 180.14604448198202 53.31858587387387V25.47705997297297Q180.14604448198202 23.63356335135135 180.94961993243246 22.723632326576574Q181.7531953828829 21.8137013018018 183.14763513513515 21.8137013018018Q184.51844031531533 21.8137013018018 185.38110219594597 22.747266898648647Q186.2437640765766 23.680832495495494 186.2437640765766 25.429790828828825ZM198.88826013513517 34.81271594144144Q198.88826013513517 32.26018215765765 198.10831925675677 30.42850282207207Q197.3283783783784 28.596823486486485 195.94575591216218 27.615988745495493Q194.56313344594597 26.6351540045045 192.88507882882885 26.6351540045045Q190.21437218468472 26.6351540045045 188.38269284909913 28.738630918918915Q186.55101351351354 30.84210783333333 186.55101351351354 34.9308888018018Q186.55101351351354 38.78332404954955 188.3708755630631 40.92225282207207Q190.19073761261265 43.06118159459459 192.88507882882885 43.06118159459459Q194.49222972972976 43.06118159459459 195.86303490990994 42.127615997747746Q197.23384009009013 41.1940504009009 198.06105011261263 39.326919207207204Q198.88826013513517 37.45978801351351 198.88826013513517 34.81271594144144Z"/></g></svg>
